# xmcd CD database file
#
# Track frame offsets:
#	150
#	19659
#	32340
#	48274
#	63140
#	88676
#	103692
#	118988
#	133722
#	156784
#
# Disc length: 2386 seconds
#
# Revision: 0
# Processed by: cddbd v1.5.1PL2 Copyright (c) Steve Scherf et al.
# Submitted via: CDex 1.50
#
DISCID=7909500a
DTITLE=Gillian Welch - Soul Journey
DYEAR=1900
DGENRE=Country
TTITLE0=look ar miss ohio
TTITLE1=make me a pallet on the floor
TTITLE2=wayside/back in time
TTITLE3=i had a real good mother and father
TTITLE4=one monkey
TTITLE5=no one knows my name
TTITLE6=lowlands
TTITLE7=one little song
TTITLE8=i made a lovers prayer
TTITLE9=wrecking ball
EXTD=
EXTT0=
EXTT1=
EXTT2=
EXTT3=
EXTT4=
EXTT5=
EXTT6=
EXTT7=
EXTT8=
EXTT9=
PLAYORDER=
